<svg xmlns="http://www.w3.org/2000/svg" viewBox="0 0 60 75" x="0px" y="0px"><title>Weaponary - Solid - 021 - Mine</title><g><path d="M58.32,28.53l-3.38-.89a3.08,3.08,0,0,0-1.25-.07,23.11,23.11,0,0,0-3.4-9.43l2.89-4.9c.67-1.13.4-1.79.06-2.14s-1-.63-2.14,0l-4.48,2.55A23.74,23.74,0,0,0,32.47,7.16L31,1.67C30.64.4,30,.13,29.49.13h0C29,.13,28.35.4,28,1.67L26.48,7.29a23.83,23.83,0,0,0-13.31,6.59L8.33,11.12c-1.14-.65-1.79-.37-2.14,0s-.61,1,.06,2.14L9.42,18.6a22.71,22.71,0,0,0-3.1,9,3.08,3.08,0,0,0-1.25.08l-3.38.89C.4,28.86.14,29.51.14,30s.27,1.14,1.54,1.48L5,32.34a4.64,4.64,0,0,0,1.17.16h.07a23.13,23.13,0,0,0,2.92,9.39L6.25,46.77c-.67,1.14-.4,1.79-.06,2.14a1.22,1.22,0,0,0,.9.37,2.55,2.55,0,0,0,1.24-.39l4.21-2.4a23.71,23.71,0,0,0,14.22,7.28L28,58.33c.34,1.27,1,1.53,1.49,1.53s1.14-.27,1.49-1.53l1.21-4.46A23.73,23.73,0,0,0,47.26,46.7l3.83,2.18a2.55,2.55,0,0,0,1.24.39,1.22,1.22,0,0,0,.9-.37c.34-.35.61-1-.06-2.14l-2.58-4.39a23,23,0,0,0,3.19-9.89h.07A4.64,4.64,0,0,0,55,32.34l3.3-.87c1.28-.33,1.54-1,1.54-1.47S59.6,28.86,58.32,28.53ZM41.89,18.66l.89-.51,7.78-4.43-2.3,3.91h0l-2.69,4.57a.5.5,0,0,1-.88.11l-2.91-2.86a.45.45,0,0,1,.11-.81Zm-15-5.33,2.58-9.51,1.22,4.5h0l1.12,4.14.23.86h0a.47.47,0,0,1-.51.67H27.42a.47.47,0,0,1-.51-.67Zm-9.37,28-5.31,3h0L8.87,46.28l5-8.48a.59.59,0,0,1,.4-.32h0a.63.63,0,0,1,.42.21l2.9,2.86h0a.45.45,0,0,1-.11.81Zm.1-21.87-2.9,2.86a.5.5,0,0,1-.88-.11l0-.08L8.86,13.72l4,2.26h0l4.71,2.68a.45.45,0,0,1,.11.81Zm14.43,27.2-2.58,9.51-1-3.56h0l-1.61-5.94a.47.47,0,0,1,.51-.67h4.14a.47.47,0,0,1,.51.67ZM29.49,33a3,3,0,1,1,3.07-3A3,3,0,0,1,29.49,33Zm18.1,11.58h0l-5.7-3.24a.45.45,0,0,1-.11-.81L43.35,39l1.35-1.32a.63.63,0,0,1,.42-.21h0a.59.59,0,0,1,.4.32l.38.65,4.61,7.84Z"/></g><text x="0" y="75" fill="#000000" font-size="5px" font-weight="bold" font-family="'Helvetica Neue', Helvetica, Arial-Unicode, Arial, Sans-serif">Created by Smashicons</text><text x="0" y="80" fill="#000000" font-size="5px" font-weight="bold" font-family="'Helvetica Neue', Helvetica, Arial-Unicode, Arial, Sans-serif">from the Noun Project</text></svg>